<svg width="349" height="68" viewBox="0 0 349 68" fill="none" xmlns="http://www.w3.org/2000/svg">
<g clip-path="url(#clip0_36_201)">
<path d="M83.2 20.95L83.95 21.35C82 25.4 78.55 27.05 75.3 24.85C75.35 26.55 75.4 27.75 75.35 29.25C75.2 33.7 74.55 38.35 72.85 42.6C72.2 44.05 70.9 46.55 69.05 46.25C68.25 46.1 67.95 45.5 67.7 44.75C67.15 42.5 67.3 40.2 67.6 37.95C68.4 32.85 69.85 27.9 72.1 23.1C74 18.4 76.3 13.8 79.4 9.55C80.05 8.5 80.9 7.5 81.85 6.6C82.25 6.2 82.9 5.9 83.55 5.75C84.65 5.5 85.2 6.1 85.15 7.2C85.15 8.75 84.4 10.15 83.7 11.5C81.5 15.75 78.4 19.35 74.6 22.25C77.05 26.65 81.35 25.2 83.2 20.95ZM73.9 23.65L73 25.9C71.05 31.4 69.15 36.9 68.85 42.75C68.7 43.35 68.75 44 68.8 44.65C69.6 47.15 71.45 43.4 71.85 42.65C73.85 37.3 74.4 31.75 74.35 26.2C74.3 25.45 74.3 24.35 73.9 23.65ZM83.65 6.75C79.95 10.85 77.55 15.6 75.35 20.5C77.5 18.5 79.85 16.2 81.5 13.6C82.85 11.5 85 6.95 83.65 6.75ZM93.1051 20.95L93.8551 21.35C92.3551 24.05 89.9051 27.85 87.0551 27C86.4551 28.3 84.8051 30.85 83.1051 30.25C81.6051 29.7 80.8051 26.75 81.4551 24.9C81.8051 23.85 82.6051 22.6 83.2051 21.9C83.1551 21.5 83.2051 21.1 83.2051 20.75C83.2551 19.5 83.8051 18.2 84.3551 17.25C87.1551 12.7 90.2051 16.35 89.4051 20.4C89.0051 22.55 88.0551 24.9 87.4051 26.2C89.6551 27.1 92.4551 22.1 93.1051 20.95ZM86.6051 25.7C87.5051 23.9 88.1051 21.9 88.5551 20C88.9551 17.8 88.0551 14.2 85.5051 17.65C83.4551 20.7 83.9051 24.3 86.6051 25.7ZM83.7551 29.55C84.6551 29.1 85.7051 27.9 86.2051 26.6C85.2051 26.15 84.5051 25.35 84.0051 24.5C82.8051 25.55 82.5551 29 83.7551 29.55ZM93.8172 21.45L93.0672 21.05L96.9672 13.4C97.2672 12.85 97.7172 12.8 98.2172 13C98.7672 13.2 98.8172 13.6 98.6172 14.15L97.3672 17.85C96.9672 19.3 97.1172 20.65 98.1172 21.85C99.0672 22.9 99.2672 24.1 98.7672 25.45C98.1672 26.95 97.5172 28.4 96.9672 29.85C96.7172 30.5 96.4172 31.5 96.3672 32.35C96.2672 34.15 97.2672 34.4 98.3172 33.9C100.767 32.75 101.817 30.55 102.867 28.55C104.317 25.9 105.517 22.85 106.517 20.95C106.517 20.95 106.617 21.05 107.267 21.35C106.317 23.25 105.017 26.25 103.567 28.9C102.367 31.2 100.867 33.6 98.4172 34.55C96.9672 35.1 95.4672 34.85 94.7172 32.9C94.2172 31.65 94.4172 30.35 94.9672 29.15C95.5672 27.85 96.2172 26.5 96.9172 25.2C97.5172 24 97.5172 22.95 96.4672 21.85C95.8172 21.15 95.0172 20.6 94.8672 19.5L93.8172 21.45ZM127.425 22.1C124.575 22.15 121.675 22.15 118.775 22.1C117.075 22.1 116.875 21 118.425 21C121.375 20.95 124.325 20.95 127.275 21C129.325 21 128.325 22.1 127.425 22.1ZM149.233 20.95L149.983 21.35C147.733 25.8 143.583 31.6 138.483 31.85C136.883 31.9 135.983 31.65 134.833 30.25C135.333 29.4 135.633 29.85 136.283 30.35C137.283 31.2 138.333 30.85 138.933 28.8C140.083 25.05 137.483 21.6 138.183 18.15C138.433 17.1 139.233 16.75 139.933 17.2C140.133 17.35 140.383 17.75 140.283 17.95C138.933 22.05 142.983 25.75 140.033 30.6C143.933 29.15 146.783 25.75 149.233 20.95ZM158.221 20.95L158.971 21.35C157.421 24.55 155.021 28.55 153.321 29.95C151.571 31.4 149.771 31.35 148.721 29.7C147.421 27.85 147.621 25.25 148.271 23.35C148.771 21.7 149.621 20.2 150.371 18.65C150.521 18.35 150.721 17.95 151.071 17.75C151.371 17.6 151.821 17.5 152.121 17.65C152.321 17.7 152.471 18.3 152.371 18.55C151.771 20.1 151.021 21.6 150.571 23.15C149.971 24.95 148.621 33.1 152.721 29.3C155.221 27 158.171 21.05 158.221 20.95ZM154.421 12C154.671 12.4 153.471 13.75 152.821 14.35C152.671 14.45 152.271 14.45 152.121 14.35C151.521 13.75 152.421 12.3 152.821 11.85C153.321 11.3 153.921 11.3 154.421 12ZM169.155 20.95L169.905 21.35C167.655 25.8 163.505 31.6 158.405 31.85C156.805 31.9 155.905 31.65 154.755 30.25C155.255 29.4 155.555 29.85 156.205 30.35C157.205 31.2 158.255 30.85 158.855 28.8C160.005 25.05 157.405 21.6 158.105 18.15C158.355 17.1 159.155 16.75 159.855 17.2C160.055 17.35 160.305 17.75 160.205 17.95C158.855 22.05 162.905 25.75 159.955 30.6C163.855 29.15 166.705 25.75 169.155 20.95ZM179.643 20.95L180.393 21.35C177.893 26.2 174.343 34 170.193 31.85C168.293 30.85 167.193 28.7 167.593 26.5C168.293 22.05 170.143 18 172.343 14.1L173.893 11.4C171.643 10.65 169.493 9.9 167.193 9.75C165.443 9.65 163.693 10 161.993 10.6C161.143 10.9 159.893 11.9 159.243 12.55C158.693 13.05 158.143 12.65 158.343 12.1C159.593 10.6 161.093 9.75 162.843 9.3C165.943 8.6 168.943 9 171.893 9.9C172.643 10.15 173.843 10.5 174.293 10.5C174.743 9.8 175.093 9.3 175.493 8.6L178.343 3.8C178.743 3 180.193 3.05 179.743 4.1C179.093 5.6 178.343 7.05 177.643 8.5L176.243 11.15C178.543 11.8 180.693 12.4 182.893 11.6C183.493 11.35 184.093 10.8 184.443 10.25C184.843 9.6 185.043 9.4 185.643 9.9C185.393 10.95 184.593 11.9 183.643 12.25C181.543 13.05 179.693 12.7 177.543 12.3C176.993 12.2 176.493 12.05 175.893 11.9C173.343 16.6 170.693 21.2 169.443 26.45C169.243 27.25 169.243 28.2 169.343 29.05C169.443 30.15 170.193 30.85 171.193 31.2C174.493 32.35 178.193 23.4 179.643 20.95ZM188.491 20.95L189.241 21.35C188.341 23.15 184.791 29.7 181.341 30C180.791 30.05 180.241 30 179.791 29.75C178.191 29 177.491 27.45 177.791 25.5C178.241 22.7 179.791 20.4 181.741 18.4C183.091 17.05 185.491 17.15 185.341 19.55C185.141 22.45 182.491 23.75 180.041 24.5C179.641 25.6 179.691 26.8 179.841 27.95C180.091 28.95 180.641 29.15 181.291 29.1C184.041 28.95 187.441 23.05 188.491 20.95ZM180.191 23.75C181.891 23.3 183.791 21.55 184.141 19.9C184.391 18.7 183.791 18.2 182.991 19.1C182.091 20.15 180.941 21.55 180.191 23.75ZM189.179 21.45L188.429 21.05L192.329 13.4C192.629 12.85 193.079 12.8 193.579 13C194.129 13.2 194.179 13.6 193.979 14.15L192.729 17.85C192.329 19.3 192.479 20.65 193.479 21.85C194.429 22.9 194.629 24.1 194.129 25.45C193.529 26.95 192.879 28.4 192.329 29.85C192.079 30.5 191.779 31.5 191.729 32.35C191.629 34.15 192.629 34.4 193.679 33.9C196.129 32.75 197.179 30.55 198.229 28.55C199.679 25.9 200.879 22.85 201.879 20.95C201.879 20.95 201.979 21.05 202.629 21.35C201.679 23.25 200.379 26.25 198.929 28.9C197.729 31.2 196.229 33.6 193.779 34.55C192.329 35.1 190.829 34.85 190.079 32.9C189.579 31.65 189.779 30.35 190.329 29.15C190.929 27.85 191.579 26.5 192.279 25.2C192.879 24 192.879 22.95 191.829 21.85C191.179 21.15 190.379 20.6 190.229 19.5L189.179 21.45ZM212.807 20.95L213.557 21.35C211.307 25.8 207.157 31.6 202.057 31.85C200.457 31.9 199.557 31.65 198.407 30.25C198.907 29.4 199.207 29.85 199.857 30.35C200.857 31.2 201.907 30.85 202.507 28.8C203.657 25.05 201.057 21.6 201.757 18.15C202.007 17.1 202.807 16.75 203.507 17.2C203.707 17.35 203.957 17.75 203.857 17.95C202.507 22.05 206.557 25.75 203.607 30.6C207.507 29.15 210.357 25.75 212.807 20.95ZM233.723 22.1C230.873 22.15 227.973 22.15 225.073 22.1C223.373 22.1 223.173 21 224.723 21C227.673 20.95 230.623 20.95 233.573 21C235.623 21 234.623 22.1 233.723 22.1ZM262.582 20.95L263.332 21.35C261.432 24.75 258.732 30.25 255.182 34.05C253.682 35.5 251.682 35.1 250.632 33.25C249.682 31.65 249.782 29.85 250.182 28.1C250.482 26.8 250.332 27.25 250.932 25.4C249.782 26.9 248.432 28.35 247.032 29.5C246.182 30.2 245.132 30.45 244.132 29.9C243.132 29.4 242.682 28.45 242.682 27.35C242.682 23.9 244.132 21.05 246.232 18.45C246.632 17.95 247.132 17.85 247.782 18.35C246.332 21.65 244.282 24.7 244.282 28.15C244.332 29.45 245.182 29.85 246.132 29C247.382 27.95 248.532 26.8 249.532 25.55C251.282 23.15 252.882 20.65 254.582 18.2C254.982 17.55 255.482 17.15 256.282 17.5C256.432 17.6 256.582 18.15 256.482 18.4C256.082 19.4 255.682 20.4 255.232 21.4C253.782 24.7 252.732 26.65 252.082 30.25C251.882 31.2 251.982 32.3 252.232 33.25C252.532 34.35 253.432 34.5 254.232 33.8C257.532 31.05 262.432 21.3 262.582 20.95ZM276.45 20.95L277.2 21.35C274.35 26.35 272.45 29 269.55 32.4C267.55 34.75 264.65 34.5 264.45 31.2C264.45 29.9 264.5 29 265.15 27L266 24.65C264.9 25.85 263.75 27.2 262.5 28.05C261.55 28.65 259.7 29.2 259.7 27.45C259.6 24.8 261.7 21.5 263.8 19.8C264.15 19.55 264.5 19.3 264.9 19.1C266.35 18.35 267.45 18.55 268.55 19.85C268.85 19.4 269.1 18.95 269.5 18.55C269.75 18.25 270.2 18 270.6 17.95C271.5 17.8 271.95 18.25 271.5 19.1L268.45 25.05C267.25 27.3 266.85 28.6 266.5 30.1C266.15 32.5 266.75 34.15 268.75 31.95C272.75 27.55 273.95 25.4 276.45 20.95ZM267.9 20.75C267.4 20.2 267.1 19.25 265.4 20.5C263.9 21.7 261.95 24.2 261.5 26.45C261.35 27.15 261.5 27.45 261.65 27.5C262.9 27.9 266.65 22.05 267.9 20.75Z" fill="#6D5B59"/>
<line x1="235" y1="42.5" x2="115" y2="42.5" stroke="#DBDBDB"/>
<path d="M135.776 52.584C136.459 52.584 137.051 52.7173 137.552 52.984C138.064 53.24 138.459 53.6347 138.736 54.168C139.024 54.6907 139.168 55.3413 139.168 56.12V61H138.368V56.184C138.368 55.2453 138.128 54.5307 137.648 54.04C137.179 53.5493 136.517 53.304 135.664 53.304C135.013 53.304 134.448 53.4373 133.968 53.704C133.488 53.9707 133.12 54.344 132.864 54.824C132.619 55.304 132.496 55.88 132.496 56.552V61H131.696V49.128H132.496V54.968L132.352 54.712C132.608 54.0507 133.029 53.5333 133.616 53.16C134.203 52.776 134.923 52.584 135.776 52.584ZM147.726 61V59.096L147.694 58.808V55.672C147.694 54.8933 147.48 54.3013 147.054 53.896C146.638 53.4907 146.024 53.288 145.214 53.288C144.638 53.288 144.099 53.3893 143.598 53.592C143.107 53.784 142.686 54.0347 142.334 54.344L141.934 53.768C142.35 53.3947 142.851 53.1067 143.438 52.904C144.024 52.6907 144.638 52.584 145.278 52.584C146.312 52.584 147.107 52.8453 147.662 53.368C148.216 53.8907 148.494 54.6693 148.494 55.704V61H147.726ZM144.718 61.064C144.099 61.064 143.56 60.968 143.102 60.776C142.654 60.5733 142.307 60.2907 142.062 59.928C141.827 59.5653 141.71 59.1493 141.71 58.68C141.71 58.2533 141.806 57.8693 141.998 57.528C142.2 57.176 142.531 56.8933 142.99 56.68C143.448 56.456 144.062 56.344 144.83 56.344H147.902V56.968H144.846C143.982 56.968 143.374 57.128 143.022 57.448C142.68 57.768 142.51 58.168 142.51 58.648C142.51 59.1813 142.712 59.608 143.118 59.928C143.523 60.248 144.094 60.408 144.83 60.408C145.534 60.408 146.126 60.248 146.606 59.928C147.096 59.608 147.459 59.144 147.694 58.536L147.918 59.08C147.694 59.688 147.31 60.1733 146.766 60.536C146.232 60.888 145.55 61.064 144.718 61.064ZM155.87 52.584C156.552 52.584 157.144 52.7173 157.646 52.984C158.158 53.24 158.552 53.6347 158.83 54.168C159.118 54.6907 159.262 55.3413 159.262 56.12V61H158.462V56.184C158.462 55.2453 158.222 54.5307 157.742 54.04C157.272 53.5493 156.611 53.304 155.758 53.304C155.107 53.304 154.542 53.4373 154.062 53.704C153.582 53.9707 153.214 54.344 152.958 54.824C152.712 55.304 152.59 55.88 152.59 56.552V61H151.79V52.648H152.558V54.968L152.446 54.712C152.702 54.0507 153.123 53.5333 153.71 53.16C154.296 52.776 155.016 52.584 155.87 52.584ZM165.771 61.064C164.993 61.064 164.289 60.888 163.659 60.536C163.041 60.1733 162.55 59.672 162.187 59.032C161.825 58.392 161.643 57.656 161.643 56.824C161.643 55.9813 161.825 55.2453 162.187 54.616C162.55 53.976 163.041 53.48 163.659 53.128C164.289 52.7653 164.993 52.584 165.771 52.584C166.507 52.584 167.169 52.7547 167.755 53.096C168.353 53.4373 168.822 53.9227 169.163 54.552C169.515 55.1813 169.691 55.9387 169.691 56.824C169.691 57.688 169.521 58.44 169.179 59.08C168.838 59.72 168.369 60.2107 167.771 60.552C167.185 60.8933 166.518 61.064 165.771 61.064ZM165.819 60.344C166.459 60.344 167.03 60.2 167.531 59.912C168.043 59.6133 168.443 59.1973 168.731 58.664C169.03 58.1307 169.179 57.5173 169.179 56.824C169.179 56.12 169.03 55.5067 168.731 54.984C168.443 54.4507 168.043 54.04 167.531 53.752C167.03 53.4533 166.459 53.304 165.819 53.304C165.179 53.304 164.603 53.4533 164.091 53.752C163.59 54.04 163.19 54.4507 162.891 54.984C162.603 55.5067 162.459 56.12 162.459 56.824C162.459 57.5173 162.603 58.1307 162.891 58.664C163.19 59.1973 163.59 59.6133 164.091 59.912C164.603 60.2 165.179 60.344 165.819 60.344ZM169.195 61V58.264L169.339 56.808L169.179 55.352V49.128H169.979V61H169.195ZM183.752 52.584C184.424 52.584 185.006 52.7173 185.496 52.984C185.998 53.24 186.387 53.6347 186.664 54.168C186.942 54.6907 187.08 55.3413 187.08 56.12V61H186.28V56.184C186.28 55.2453 186.051 54.5307 185.592 54.04C185.134 53.5493 184.494 53.304 183.672 53.304C183.043 53.304 182.499 53.4373 182.04 53.704C181.582 53.9707 181.23 54.344 180.984 54.824C180.739 55.304 180.616 55.88 180.616 56.552V61H179.816V56.184C179.816 55.2453 179.587 54.5307 179.128 54.04C178.67 53.5493 178.03 53.304 177.208 53.304C176.579 53.304 176.035 53.4373 175.576 53.704C175.118 53.9707 174.766 54.344 174.52 54.824C174.275 55.304 174.152 55.88 174.152 56.552V61H173.352V52.648H174.12V54.952L174.008 54.696C174.254 54.0453 174.664 53.5333 175.24 53.16C175.816 52.776 176.51 52.584 177.32 52.584C178.152 52.584 178.851 52.7973 179.416 53.224C179.992 53.64 180.355 54.264 180.504 55.096L180.232 54.984C180.456 54.2693 180.878 53.6933 181.496 53.256C182.115 52.808 182.867 52.584 183.752 52.584ZM195.648 61V59.096L195.616 58.808V55.672C195.616 54.8933 195.402 54.3013 194.976 53.896C194.56 53.4907 193.946 53.288 193.136 53.288C192.56 53.288 192.021 53.3893 191.52 53.592C191.029 53.784 190.608 54.0347 190.256 54.344L189.856 53.768C190.272 53.3947 190.773 53.1067 191.36 52.904C191.946 52.6907 192.56 52.584 193.2 52.584C194.234 52.584 195.029 52.8453 195.584 53.368C196.138 53.8907 196.416 54.6693 196.416 55.704V61H195.648ZM192.64 61.064C192.021 61.064 191.482 60.968 191.024 60.776C190.576 60.5733 190.229 60.2907 189.984 59.928C189.749 59.5653 189.632 59.1493 189.632 58.68C189.632 58.2533 189.728 57.8693 189.92 57.528C190.122 57.176 190.453 56.8933 190.912 56.68C191.37 56.456 191.984 56.344 192.752 56.344H195.824V56.968H192.768C191.904 56.968 191.296 57.128 190.944 57.448C190.602 57.768 190.432 58.168 190.432 58.648C190.432 59.1813 190.634 59.608 191.039 59.928C191.445 60.248 192.016 60.408 192.752 60.408C193.456 60.408 194.048 60.248 194.528 59.928C195.018 59.608 195.381 59.144 195.616 58.536L195.84 59.08C195.616 59.688 195.232 60.1733 194.688 60.536C194.154 60.888 193.472 61.064 192.64 61.064ZM202.928 61.064C202.149 61.064 201.445 60.888 200.816 60.536C200.197 60.1733 199.706 59.672 199.344 59.032C198.981 58.392 198.8 57.656 198.8 56.824C198.8 55.9813 198.981 55.2453 199.344 54.616C199.706 53.976 200.197 53.48 200.816 53.128C201.445 52.7653 202.149 52.584 202.928 52.584C203.664 52.584 204.325 52.7547 204.912 53.096C205.509 53.4373 205.978 53.9227 206.32 54.552C206.672 55.1813 206.848 55.9387 206.848 56.824C206.848 57.688 206.677 58.44 206.336 59.08C205.994 59.72 205.525 60.2107 204.928 60.552C204.341 60.8933 203.674 61.064 202.928 61.064ZM202.976 60.344C203.616 60.344 204.186 60.2 204.688 59.912C205.2 59.6133 205.6 59.1973 205.888 58.664C206.186 58.1307 206.336 57.5173 206.336 56.824C206.336 56.12 206.186 55.5067 205.888 54.984C205.6 54.4507 205.2 54.04 204.688 53.752C204.186 53.4533 203.616 53.304 202.976 53.304C202.336 53.304 201.76 53.4533 201.248 53.752C200.746 54.04 200.346 54.4507 200.048 54.984C199.76 55.5067 199.616 56.12 199.616 56.824C199.616 57.5173 199.76 58.1307 200.048 58.664C200.346 59.1973 200.746 59.6133 201.248 59.912C201.76 60.2 202.336 60.344 202.976 60.344ZM206.352 61V58.264L206.496 56.808L206.336 55.352V49.128H207.136V61H206.352ZM213.901 61.064C213.058 61.064 212.311 60.8827 211.661 60.52C211.021 60.1573 210.514 59.656 210.141 59.016C209.778 58.376 209.597 57.6453 209.597 56.824C209.597 55.992 209.767 55.2613 210.109 54.632C210.461 53.992 210.941 53.4907 211.549 53.128C212.157 52.7653 212.839 52.584 213.597 52.584C214.354 52.584 215.031 52.76 215.629 53.112C216.237 53.464 216.711 53.96 217.053 54.6C217.405 55.2293 217.581 55.96 217.581 56.792C217.581 56.824 217.575 56.8613 217.565 56.904C217.565 56.936 217.565 56.9733 217.565 57.016H210.189V56.392H217.133L216.812 56.696C216.823 56.0453 216.685 55.464 216.397 54.952C216.119 54.4293 215.741 54.024 215.261 53.736C214.781 53.4373 214.226 53.288 213.597 53.288C212.978 53.288 212.423 53.4373 211.933 53.736C211.453 54.024 211.074 54.4293 210.797 54.952C210.519 55.464 210.381 56.0507 210.381 56.712V56.856C210.381 57.5387 210.53 58.1467 210.829 58.68C211.138 59.2027 211.559 59.6133 212.093 59.912C212.626 60.2 213.234 60.344 213.917 60.344C214.45 60.344 214.946 60.248 215.405 60.056C215.874 59.864 216.269 59.5707 216.589 59.176L217.053 59.704C216.69 60.152 216.231 60.4933 215.677 60.728C215.133 60.952 214.541 61.064 213.901 61.064Z" fill="#6D5B59"/>
</g>
<defs>
<clipPath id="clip0_36_201">
<rect width="68" height="349" fill="white" transform="matrix(0 1 -1 0 349 0)"/>
</clipPath>
</defs>
</svg>
