<svg width="100" height="347" viewBox="0 0 100 347" fill="none" xmlns="http://www.w3.org/2000/svg">
<path d="M32.425 304.7L33.025 303.575C39.1 306.5 41.575 311.675 38.275 316.55C40.825 316.475 42.625 316.4 44.875 316.475C51.55 316.7 58.525 317.675 64.9 320.225C67.075 321.2 70.825 323.15 70.375 325.925C70.15 327.125 69.25 327.575 68.125 327.95C64.75 328.775 61.3 328.55 57.925 328.1C50.275 326.9 42.85 324.725 35.65 321.35C28.6 318.5 21.7 315.05 15.325 310.4C13.75 309.425 12.25 308.15 10.9 306.725C10.3 306.125 9.85 305.15 9.625 304.175C9.25 302.525 10.15 301.7 11.8 301.775C14.125 301.775 16.225 302.9 18.25 303.95C24.625 307.25 30.025 311.9 34.375 317.6C40.975 313.925 38.8 307.475 32.425 304.7ZM36.475 318.65L39.85 320C48.1 322.925 56.35 325.775 65.125 326.225C66.025 326.45 67 326.375 67.975 326.3C71.725 325.1 66.1 322.325 64.975 321.725C56.95 318.725 48.625 317.9 40.3 317.975C39.175 318.05 37.525 318.05 36.475 318.65ZM11.125 304.025C17.275 309.575 24.4 313.175 31.75 316.475C28.75 313.25 25.3 309.725 21.4 307.25C18.25 305.225 11.425 302 11.125 304.025ZM32.425 289.842L33.025 288.717C37.075 290.967 42.775 294.642 41.5 298.917C43.45 299.817 47.275 302.292 46.375 304.842C45.55 307.092 41.125 308.292 38.35 307.317C36.775 306.792 34.9 305.592 33.85 304.692C33.25 304.767 32.65 304.692 32.125 304.692C30.25 304.617 28.3 303.792 26.875 302.967C20.05 298.767 25.525 294.192 31.6 295.392C34.825 295.992 38.35 297.417 40.3 298.392C41.65 295.017 34.15 290.817 32.425 289.842ZM39.55 299.592C36.85 298.242 33.85 297.342 31 296.667C27.7 296.067 22.3 297.417 27.475 301.242C32.05 304.317 37.45 303.642 39.55 299.592ZM45.325 303.867C44.65 302.517 42.85 300.942 40.9 300.192C40.225 301.692 39.025 302.742 37.75 303.492C39.325 305.292 44.5 305.667 45.325 303.867ZM33.175 288.774L32.575 289.899L21.1 284.049C20.275 283.599 20.2 282.924 20.5 282.174C20.8 281.349 21.4 281.274 22.225 281.574L27.775 283.449C29.95 284.049 31.975 283.824 33.775 282.324C35.35 280.899 37.15 280.599 39.175 281.349C41.425 282.249 43.6 283.224 45.775 284.049C46.75 284.424 48.25 284.874 49.525 284.949C52.225 285.099 52.6 283.599 51.85 282.024C50.125 278.349 46.825 276.774 43.825 275.199C39.85 273.024 35.275 271.224 32.425 269.724C32.425 269.724 32.575 269.574 33.025 268.599C35.875 270.024 40.375 271.974 44.35 274.149C47.8 275.949 51.4 278.199 52.825 281.874C53.65 284.049 53.275 286.299 50.35 287.424C48.475 288.174 46.525 287.874 44.725 287.049C42.775 286.149 40.75 285.174 38.8 284.124C37 283.224 35.425 283.224 33.775 284.799C32.725 285.774 31.9 286.974 30.25 287.199L33.175 288.774ZM34.15 238.363C34.225 242.638 34.225 246.988 34.15 251.338C34.15 253.888 32.5 254.188 32.5 251.863C32.425 247.438 32.425 243.013 32.5 238.588C32.5 235.513 34.15 237.013 34.15 238.363ZM32.425 205.65L33.025 204.525C39.7 207.9 48.4 214.125 48.775 221.775C48.85 224.175 48.475 225.525 46.375 227.25C45.1 226.5 45.775 226.05 46.525 225.075C47.8 223.575 47.275 222 44.2 221.1C38.575 219.375 33.4 223.275 28.225 222.225C26.65 221.85 26.125 220.65 26.8 219.6C27.025 219.3 27.625 218.925 27.925 219.075C34.075 221.1 39.625 215.025 46.9 219.45C44.725 213.6 39.625 209.325 32.425 205.65ZM32.425 192.169L33.025 191.044C37.825 193.369 43.825 196.969 45.925 199.519C48.1 202.144 48.025 204.844 45.55 206.419C42.775 208.369 38.875 208.069 36.025 207.094C33.55 206.344 31.3 205.069 28.975 203.944C28.525 203.719 27.925 203.419 27.625 202.894C27.4 202.444 27.25 201.769 27.475 201.319C27.55 201.019 28.45 200.794 28.825 200.944C31.15 201.844 33.4 202.969 35.725 203.644C38.425 204.544 50.65 206.569 44.95 200.419C41.5 196.669 32.575 192.244 32.425 192.169ZM19 197.869C19.6 197.494 21.625 199.294 22.525 200.269C22.675 200.494 22.675 201.094 22.525 201.319C21.625 202.219 19.45 200.869 18.775 200.269C17.95 199.519 17.95 198.619 19 197.869ZM32.425 175.767L33.025 174.642C39.7 178.017 48.4 184.242 48.775 191.892C48.85 194.292 48.475 195.642 46.375 197.367C45.1 196.617 45.775 196.167 46.525 195.192C47.8 193.692 47.275 192.117 44.2 191.217C38.575 189.492 33.4 193.392 28.225 192.342C26.65 191.967 26.125 190.767 26.8 189.717C27.025 189.417 27.625 189.042 27.925 189.192C34.075 191.217 39.625 185.142 46.9 189.567C44.725 183.717 39.625 179.442 32.425 175.767ZM32.425 160.036L33.025 158.911C40.3 162.661 52 167.986 48.775 174.211C47.275 177.061 44.05 178.711 40.75 178.111C34.075 177.061 28 174.286 22.15 170.986L18.1 168.661C16.975 172.036 15.85 175.261 15.625 178.711C15.475 181.336 16 183.961 16.9 186.511C17.35 187.786 18.85 189.661 19.825 190.636C20.575 191.461 19.975 192.286 19.15 191.986C16.9 190.111 15.625 187.861 14.95 185.236C13.9 180.586 14.5 176.086 15.85 171.661C16.225 170.536 16.75 168.736 16.75 168.061C15.7 167.386 14.95 166.861 13.9 166.261L6.7 161.986C5.5 161.386 5.575 159.211 7.15 159.886C9.4 160.861 11.575 161.986 13.75 163.036L17.725 165.136C18.7 161.686 19.6 158.461 18.4 155.161C18.025 154.261 17.2 153.361 16.375 152.836C15.4 152.236 15.1 151.936 15.85 151.036C17.425 151.411 18.85 152.611 19.375 154.036C20.575 157.186 20.05 159.961 19.45 163.186C19.3 164.011 19.075 164.761 18.85 165.661C25.9 169.486 32.8 173.461 40.675 175.336C41.875 175.636 43.3 175.636 44.575 175.486C46.225 175.336 47.275 174.211 47.8 172.711C49.525 167.761 36.1 162.211 32.425 160.036ZM32.425 146.764L33.025 145.639C35.725 146.989 45.55 152.314 46 157.489C46.075 158.314 46 159.139 45.625 159.814C44.5 162.214 42.175 163.264 39.25 162.814C35.05 162.139 31.6 159.814 28.6 156.889C26.575 154.864 26.725 151.264 30.325 151.489C34.675 151.789 36.625 155.764 37.75 159.439C39.4 160.039 41.2 159.964 42.925 159.739C44.425 159.364 44.725 158.539 44.65 157.564C44.425 153.439 35.575 148.339 32.425 146.764ZM36.625 159.214C35.95 156.664 33.325 153.814 30.85 153.289C29.05 152.914 28.3 153.814 29.65 155.014C31.225 156.364 33.325 158.089 36.625 159.214ZM33.175 145.732L32.575 146.857L21.1 141.007C20.275 140.557 20.2 139.882 20.5 139.132C20.8 138.307 21.4 138.232 22.225 138.532L27.775 140.407C29.95 141.007 31.975 140.782 33.775 139.282C35.35 137.857 37.15 137.557 39.175 138.307C41.425 139.207 43.6 140.182 45.775 141.007C46.75 141.382 48.25 141.832 49.525 141.907C52.225 142.057 52.6 140.557 51.85 138.982C50.125 135.307 46.825 133.732 43.825 132.157C39.85 129.982 35.275 128.182 32.425 126.682C32.425 126.682 32.575 126.532 33.025 125.557C35.875 126.982 40.375 128.932 44.35 131.107C47.8 132.907 51.4 135.157 52.825 138.832C53.65 141.007 53.275 143.257 50.35 144.382C48.475 145.132 46.525 144.832 44.725 144.007C42.775 143.107 40.75 142.132 38.8 141.082C37 140.182 35.425 140.182 33.775 141.757C32.725 142.732 31.9 143.932 30.25 144.157L33.175 145.732ZM32.425 110.289L33.025 109.164C39.7 112.539 48.4 118.764 48.775 126.414C48.85 128.814 48.475 130.164 46.375 131.889C45.1 131.139 45.775 130.689 46.525 129.714C47.8 128.214 47.275 126.639 44.2 125.739C38.575 124.014 33.4 127.914 28.225 126.864C26.65 126.489 26.125 125.289 26.8 124.239C27.025 123.939 27.625 123.564 27.925 123.714C34.075 125.739 39.625 119.664 46.9 124.089C44.725 118.239 39.625 113.964 32.425 110.289ZM34.15 78.9148C34.225 83.1898 34.225 87.5398 34.15 91.8898C34.15 94.4398 32.5 94.7398 32.5 92.4148C32.425 87.9898 32.425 83.5648 32.5 79.1398C32.5 76.0648 34.15 77.5648 34.15 78.9148ZM32.425 35.627L33.025 34.502C38.125 37.352 46.375 41.402 52.075 46.727C54.25 48.977 53.65 51.977 50.875 53.552C48.475 54.977 45.775 54.827 43.15 54.227C41.2 53.777 41.875 54.002 39.1 53.102C41.35 54.827 43.525 56.852 45.25 58.952C46.3 60.227 46.675 61.802 45.85 63.302C45.1 64.802 43.675 65.477 42.025 65.477C36.85 65.477 32.575 63.302 28.675 60.152C27.925 59.552 27.775 58.802 28.525 57.827C33.475 60.002 38.05 63.077 43.225 63.077C45.175 63.002 45.775 61.727 44.5 60.302C42.925 58.427 41.2 56.702 39.325 55.202C35.725 52.577 31.975 50.177 28.3 47.627C27.325 47.027 26.725 46.277 27.25 45.077C27.4 44.852 28.225 44.627 28.6 44.777C30.1 45.377 31.6 45.977 33.1 46.652C38.05 48.827 40.975 50.402 46.375 51.377C47.8 51.677 49.45 51.527 50.875 51.152C52.525 50.702 52.75 49.352 51.7 48.152C47.575 43.202 32.95 35.852 32.425 35.627ZM32.425 14.8256L33.025 13.7006C40.525 17.9756 44.5 20.8256 49.6 25.1756C53.125 28.1756 52.75 32.5256 47.8 32.8256C45.85 32.8256 44.5 32.7506 41.5 31.7756L37.975 30.5006C39.775 32.1506 41.8 33.8756 43.075 35.7506C43.975 37.1756 44.8 39.9506 42.175 39.9506C38.2 40.1006 33.25 36.9506 30.7 33.8006C30.325 33.2756 29.95 32.7506 29.65 32.1506C28.525 29.9756 28.825 28.3256 30.775 26.6756C30.1 26.2256 29.425 25.8506 28.825 25.2506C28.375 24.8756 28 24.2006 27.925 23.6006C27.7 22.2506 28.375 21.5756 29.65 22.2506L38.575 26.8256C41.95 28.6256 43.9 29.2256 46.15 29.7506C49.75 30.2756 52.225 29.3756 48.925 26.3756C42.325 20.3756 39.1 18.5756 32.425 14.8256ZM32.125 27.6506C31.3 28.4006 29.875 28.8506 31.75 31.4006C33.55 33.6506 37.3 36.5756 40.675 37.2506C41.725 37.4756 42.175 37.2506 42.25 37.0256C42.85 35.1506 34.075 29.5256 32.125 27.6506Z" fill="#6D5B59"/>
<line x1="61" y1="82" x2="61" y2="252" stroke="#DBDBDB" stroke-width="2"/>
<path d="M74.428 220.058C74.428 219.119 74.6113 218.305 74.978 217.616C75.33 216.912 75.8727 216.369 76.606 215.988C77.3247 215.592 78.2193 215.394 79.29 215.394H86V216.494H79.378C78.0873 216.494 77.1047 216.824 76.43 217.484C75.7553 218.129 75.418 219.039 75.418 220.212C75.418 221.107 75.6013 221.884 75.968 222.544C76.3347 223.204 76.848 223.71 77.508 224.062C78.168 224.399 78.96 224.568 79.884 224.568H86V225.668H69.676V224.568H77.706L77.354 224.766C76.4447 224.414 75.7333 223.835 75.22 223.028C74.692 222.221 74.428 221.231 74.428 220.058ZM86 203.627H83.382L82.986 203.671H78.674C77.6033 203.671 76.7893 203.965 76.232 204.551C75.6747 205.123 75.396 205.967 75.396 207.081C75.396 207.873 75.5353 208.614 75.814 209.303C76.078 209.978 76.4227 210.557 76.848 211.041L76.056 211.591C75.5427 211.019 75.1467 210.33 74.868 209.523C74.5747 208.717 74.428 207.873 74.428 206.993C74.428 205.571 74.7873 204.478 75.506 203.715C76.2247 202.953 77.2953 202.571 78.718 202.571H86V203.627ZM86.088 207.763C86.088 208.614 85.956 209.355 85.692 209.985C85.4133 210.601 85.0247 211.078 84.526 211.415C84.0273 211.738 83.4553 211.899 82.81 211.899C82.2233 211.899 81.6953 211.767 81.226 211.503C80.742 211.225 80.3533 210.77 80.06 210.139C79.752 209.509 79.598 208.665 79.598 207.609V203.385H80.456V207.587C80.456 208.775 80.676 209.611 81.116 210.095C81.556 210.565 82.106 210.799 82.766 210.799C83.4993 210.799 84.086 210.521 84.526 209.963C84.966 209.406 85.186 208.621 85.186 207.609C85.186 206.641 84.966 205.827 84.526 205.167C84.086 204.493 83.448 203.994 82.612 203.671L83.36 203.363C84.196 203.671 84.8633 204.199 85.362 204.947C85.846 205.681 86.088 206.619 86.088 207.763ZM74.428 192.429C74.428 191.49 74.6113 190.676 74.978 189.987C75.33 189.283 75.8727 188.74 76.606 188.359C77.3247 187.963 78.2193 187.765 79.29 187.765H86V188.865H79.378C78.0873 188.865 77.1047 189.195 76.43 189.855C75.7553 190.5 75.418 191.41 75.418 192.583C75.418 193.478 75.6013 194.255 75.968 194.915C76.3347 195.575 76.848 196.081 77.508 196.433C78.168 196.77 78.96 196.939 79.884 196.939H86V198.039H74.516V196.983H77.706L77.354 197.137C76.4447 196.785 75.7333 196.206 75.22 195.399C74.692 194.592 74.428 193.602 74.428 192.429ZM86.088 178.814C86.088 179.885 85.846 180.853 85.362 181.718C84.8633 182.569 84.174 183.244 83.294 183.742C82.414 184.241 81.402 184.49 80.258 184.49C79.0993 184.49 78.0873 184.241 77.222 183.742C76.342 183.244 75.66 182.569 75.176 181.718C74.6773 180.853 74.428 179.885 74.428 178.814C74.428 177.802 74.6627 176.893 75.132 176.086C75.6013 175.265 76.2687 174.62 77.134 174.15C77.9993 173.666 79.0407 173.424 80.258 173.424C81.446 173.424 82.48 173.659 83.36 174.128C84.24 174.598 84.9147 175.243 85.384 176.064C85.8533 176.871 86.088 177.788 86.088 178.814ZM85.098 178.748C85.098 177.868 84.9 177.084 84.504 176.394C84.0933 175.69 83.5213 175.14 82.788 174.744C82.0547 174.334 81.2113 174.128 80.258 174.128C79.29 174.128 78.4467 174.334 77.728 174.744C76.9947 175.14 76.43 175.69 76.034 176.394C75.6233 177.084 75.418 177.868 75.418 178.748C75.418 179.628 75.6233 180.42 76.034 181.124C76.43 181.814 76.9947 182.364 77.728 182.774C78.4467 183.17 79.29 183.368 80.258 183.368C81.2113 183.368 82.0547 183.17 82.788 182.774C83.5213 182.364 84.0933 181.814 84.504 181.124C84.9 180.42 85.098 179.628 85.098 178.748ZM86 174.106H82.238L80.236 173.908L78.234 174.128H69.676V173.028H86V174.106ZM74.428 154.091C74.428 153.167 74.6113 152.367 74.978 151.693C75.33 151.003 75.8727 150.468 76.606 150.087C77.3247 149.705 78.2193 149.515 79.29 149.515H86V150.615H79.378C78.0873 150.615 77.1047 150.93 76.43 151.561C75.7553 152.191 75.418 153.071 75.418 154.201C75.418 155.066 75.6013 155.814 75.968 156.445C76.3347 157.075 76.848 157.559 77.508 157.897C78.168 158.234 78.96 158.403 79.884 158.403H86V159.503H79.378C78.0873 159.503 77.1047 159.818 76.43 160.449C75.7553 161.079 75.418 161.959 75.418 163.089C75.418 163.954 75.6013 164.702 75.968 165.333C76.3347 165.963 76.848 166.447 77.508 166.785C78.168 167.122 78.96 167.291 79.884 167.291H86V168.391H74.516V167.335H77.684L77.332 167.489C76.4373 167.151 75.7333 166.587 75.22 165.795C74.692 165.003 74.428 164.049 74.428 162.935C74.428 161.791 74.7213 160.83 75.308 160.053C75.88 159.261 76.738 158.762 77.882 158.557L77.728 158.931C76.7453 158.623 75.9533 158.043 75.352 157.193C74.736 156.342 74.428 155.308 74.428 154.091ZM86 137.735H83.382L82.986 137.779H78.674C77.6033 137.779 76.7893 138.072 76.232 138.659C75.6747 139.231 75.396 140.074 75.396 141.189C75.396 141.981 75.5353 142.721 75.814 143.411C76.078 144.085 76.4227 144.665 76.848 145.149L76.056 145.699C75.5427 145.127 75.1467 144.437 74.868 143.631C74.5747 142.824 74.428 141.981 74.428 141.101C74.428 139.678 74.7873 138.585 75.506 137.823C76.2247 137.06 77.2953 136.679 78.718 136.679H86V137.735ZM86.088 141.871C86.088 142.721 85.956 143.462 85.692 144.093C85.4133 144.709 85.0247 145.185 84.526 145.523C84.0273 145.845 83.4553 146.007 82.81 146.007C82.2233 146.007 81.6953 145.875 81.226 145.611C80.742 145.332 80.3533 144.877 80.06 144.247C79.752 143.616 79.598 142.773 79.598 141.717V137.493H80.456V141.695C80.456 142.883 80.676 143.719 81.116 144.203C81.556 144.672 82.106 144.907 82.766 144.907C83.4993 144.907 84.086 144.628 84.526 144.071C84.966 143.513 85.186 142.729 85.186 141.717C85.186 140.749 84.966 139.935 84.526 139.275C84.086 138.6 83.448 138.101 82.612 137.779L83.36 137.471C84.196 137.779 84.8633 138.307 85.362 139.055C85.846 139.788 86.088 140.727 86.088 141.871ZM86.088 127.725C86.088 128.795 85.846 129.763 85.362 130.629C84.8633 131.479 84.174 132.154 83.294 132.653C82.414 133.151 81.402 133.401 80.258 133.401C79.0993 133.401 78.0873 133.151 77.222 132.653C76.342 132.154 75.66 131.479 75.176 130.629C74.6773 129.763 74.428 128.795 74.428 127.725C74.428 126.713 74.6627 125.803 75.132 124.997C75.6013 124.175 76.2687 123.53 77.134 123.061C77.9993 122.577 79.0407 122.335 80.258 122.335C81.446 122.335 82.48 122.569 83.36 123.039C84.24 123.508 84.9147 124.153 85.384 124.975C85.8533 125.781 86.088 126.698 86.088 127.725ZM85.098 127.659C85.098 126.779 84.9 125.994 84.504 125.305C84.0933 124.601 83.5213 124.051 82.788 123.655C82.0547 123.244 81.2113 123.039 80.258 123.039C79.29 123.039 78.4467 123.244 77.728 123.655C76.9947 124.051 76.43 124.601 76.034 125.305C75.6233 125.994 75.418 126.779 75.418 127.659C75.418 128.539 75.6233 129.331 76.034 130.035C76.43 130.724 76.9947 131.274 77.728 131.685C78.4467 132.081 79.29 132.279 80.258 132.279C81.2113 132.279 82.0547 132.081 82.788 131.685C83.5213 131.274 84.0933 130.724 84.504 130.035C84.9 129.331 85.098 128.539 85.098 127.659ZM86 123.017H82.238L80.236 122.819L78.234 123.039H69.676V121.939H86V123.017ZM86.088 112.637C86.088 113.795 85.8387 114.822 85.34 115.717C84.8413 116.597 84.152 117.293 83.272 117.807C82.392 118.305 81.3873 118.555 80.258 118.555C79.114 118.555 78.1093 118.32 77.244 117.851C76.364 117.367 75.6747 116.707 75.176 115.871C74.6773 115.035 74.428 114.096 74.428 113.055C74.428 112.013 74.67 111.082 75.154 110.261C75.638 109.425 76.32 108.772 77.2 108.303C78.0653 107.819 79.07 107.577 80.214 107.577C80.258 107.577 80.3093 107.584 80.368 107.599C80.412 107.599 80.4633 107.599 80.522 107.599V117.741H79.664V108.193L80.082 108.633C79.1873 108.618 78.388 108.809 77.684 109.205C76.9653 109.586 76.408 110.107 76.012 110.767C75.6013 111.427 75.396 112.189 75.396 113.055C75.396 113.905 75.6013 114.668 76.012 115.343C76.408 116.003 76.9653 116.523 77.684 116.905C78.388 117.286 79.1947 117.477 80.104 117.477H80.302C81.2407 117.477 82.0767 117.271 82.81 116.861C83.5287 116.435 84.0933 115.856 84.504 115.123C84.9 114.389 85.098 113.553 85.098 112.615C85.098 111.881 84.966 111.199 84.702 110.569C84.438 109.923 84.0347 109.381 83.492 108.941L84.218 108.303C84.834 108.801 85.3033 109.432 85.626 110.195C85.934 110.943 86.088 111.757 86.088 112.637Z" fill="#6D5B59"/>
</svg>
